<svg width="35" height="35" viewBox="0 0 35 35" fill="none" xmlns="http://www.w3.org/2000/svg">
<circle cx="17.5" cy="17.5" r="17.25" fill="white" stroke="#A8A4B5" stroke-width="0.5"/>
<path d="M17.5 19.375C19.065 19.375 20.3333 18.1161 20.3333 16.5625V12.8125C20.3333 11.2589 19.065 10 17.5 10C15.935 10 14.6667 11.2589 14.6667 12.8125V16.5625C14.6667 18.1161 15.935 19.375 17.5 19.375ZM23 16.529C23 16.4554 22.94 16.3951 22.8667 16.3951H21.8667C21.7933 16.3951 21.7333 16.4554 21.7333 16.529C21.7333 18.8778 19.8383 20.7812 17.5 20.7812C15.1617 20.7812 13.2667 18.8778 13.2667 16.529C13.2667 16.4554 13.2067 16.3951 13.1333 16.3951H12.1333C12.06 16.3951 12 16.4554 12 16.529C12 19.3532 14.11 21.6836 16.8333 22.0134V23.7277H14.4117C14.1833 23.7277 14 23.9671 14 24.2634V24.8661C14 24.9397 14.0467 25 14.1033 25H20.8967C20.9533 25 21 24.9397 21 24.8661V24.2634C21 23.9671 20.8167 23.7277 20.5883 23.7277H18.1V22.0218C20.855 21.7204 23 19.3767 23 16.529Z" fill="#14AE5C"/>
</svg>
